<svg width="736" height="148" viewBox="0 0 736 148" fill="none" xmlns="http://www.w3.org/2000/svg">
<path d="M0 17.6604C0 7.90682 7.93193 0 17.7165 0L131.284 0C141.068 0 149 7.90682 149 17.6604C149 27.4139 141.068 35.3208 131.284 35.3208L17.7165 35.3208C7.93193 35.3208 0 27.4139 0 17.6604Z" fill="#EF2C5A"/>
<path d="M0 72C0 62.2464 7.93193 54.3396 17.7165 54.3396L90.8537 54.3396C100.638 54.3396 108.57 62.2464 108.57 72C108.57 81.7536 100.638 89.6604 90.8537 89.6604H17.7165C7.93193 89.6604 0 81.7536 0 72Z" fill="#EF2C5A"/>
<path d="M0 126.34C0 116.586 7.93193 108.679 17.7165 108.679H44.5183C54.3028 108.679 62.2348 116.586 62.2348 126.34C62.2348 136.093 54.3028 144 44.5183 144H17.7165C7.93193 144 0 136.093 0 126.34Z" fill="#EF2C5A"/>
<path d="M251 31.25L235.875 43.125C235.125 40.75 234.271 38.9583 233.312 37.75C232.396 36.5417 231.292 35.9375 230 35.9375C228.125 35.9375 226.729 36.7083 225.812 38.25C224.937 39.7917 224.5 42.1875 224.5 45.4375V52.1875H236.125V67.5625H224.5V102.75H236.75V117.875H194V102.75H203.625V67.5625H194.812V52.1875H203.625V45.4375C203.625 38.2708 205.771 32.5833 210.062 28.375C214.396 24.125 220.687 22 228.937 22C239.271 22 246.625 25.0833 251 31.25Z" fill="white"/>
<path d="M307.375 78.4375V102.75H318V117.875H286.5V112.75C280.542 116.833 274.583 118.875 268.625 118.875C261.417 118.875 255.646 117.021 251.312 113.312C246.979 109.604 244.812 104.604 244.812 98.3125C244.812 91.6458 247.229 86.3125 252.062 82.3125C256.937 78.2708 263.396 76.25 271.437 76.25C274.229 76.25 276.708 76.5625 278.875 77.1875C281.083 77.7708 283.625 78.7917 286.5 80.25V75C286.5 71.6667 285.458 69 283.375 67C281.292 65 278.167 64 274 64C269.458 64 265.437 65.75 261.937 69.25L245.062 66.1875C250.187 55.8542 260.771 50.6875 276.812 50.6875C287.812 50.6875 295.646 52.9583 300.312 57.5C305.021 62 307.375 68.9792 307.375 78.4375ZM273.312 105.812C277.062 105.812 281.458 103.562 286.5 99.0625V93.1875C282 90.2708 277.875 88.8125 274.125 88.8125C271.125 88.8125 268.833 89.5208 267.25 90.9375C265.667 92.3542 264.875 94.375 264.875 97C264.875 102.875 267.687 105.812 273.312 105.812Z" fill="white"/>
<path d="M365 54.5V52.1875H379.937V71.4375H365C363.708 66.8125 358.917 64.5 350.625 64.5C344.667 64.5 341.687 66.1667 341.687 69.5C341.687 70.9583 342.479 72.0417 344.062 72.75C345.646 73.4583 347.958 74.0417 351 74.5C359.542 75.5833 366.271 77.1458 371.187 79.1875C376.104 81.1875 379.542 83.6875 381.5 86.6875C383.458 89.6458 384.437 93.25 384.437 97.5C384.437 104.417 382.062 109.812 377.312 113.688C372.604 117.521 366.187 119.438 358.062 119.438C350.146 119.438 344.771 117.854 341.937 114.688V117.875H326.687V95.25H341.937C342.354 98.375 343.854 100.833 346.437 102.625C349.062 104.417 352.292 105.312 356.125 105.312C359.875 105.312 362.646 104.896 364.437 104.062C366.229 103.188 367.125 101.688 367.125 99.5625C367.125 98.1042 366.75 96.9792 366 96.1875C365.25 95.3542 363.792 94.625 361.625 94C359.5 93.375 356.229 92.6667 351.812 91.875C341.979 90.3333 334.896 87.8542 330.562 84.4375C326.271 80.9792 324.125 76.3333 324.125 70.5C324.125 64.5417 326.354 59.8542 330.812 56.4375C335.312 53.0208 341.229 51.3125 348.562 51.3125C354.479 51.3125 359.958 52.375 365 54.5Z" fill="white"/>
<path d="M431.625 52.1875V67.5625H419.5V96.25C419.5 98.2917 419.896 99.8333 420.687 100.875C421.479 101.875 422.958 102.375 425.125 102.375C426.917 102.375 429.083 101.917 431.625 101V115.562C426 117.771 420.708 118.875 415.75 118.875C410.042 118.875 405.75 117.438 402.875 114.562C400.042 111.646 398.625 107.542 398.625 102.25V67.5625H390.312V52.1875H398.625V42L419.5 27V52.1875H431.625Z" fill="white"/>
<path d="M484.875 60.375V52.1875H517.312V67.5625H505.875V132.312H517.312V147.438H472.25V132.312H484.875V111.25C479.25 116.708 472.937 119.438 465.937 119.438C460.396 119.438 455.479 117.875 451.187 114.75C446.937 111.625 443.646 107.458 441.312 102.25C438.979 97.0417 437.812 91.4167 437.812 85.375C437.812 79.2917 439 73.6667 441.375 68.5C443.792 63.2917 447.125 59.125 451.375 56C455.625 52.875 460.396 51.3125 465.687 51.3125C472.604 51.3125 479 54.3333 484.875 60.375ZM472.125 103C475.875 103 478.979 101.479 481.437 98.4375C483.937 95.3542 485.187 90.875 485.187 85C485.187 79.7917 484.021 75.6875 481.687 72.6875C479.396 69.6875 476.208 68.1875 472.125 68.1875C468.292 68.1875 465.187 69.6042 462.812 72.4375C460.479 75.2708 459.312 79.4583 459.312 85C459.312 90.7083 460.437 95.1458 462.687 98.3125C464.937 101.438 468.083 103 472.125 103Z" fill="white"/>
<path d="M560.5 101.625C564.083 101.625 567.958 100.042 572.125 96.875V67.5625H562.062V52.1875H593V102.75H603.75V117.875H572.125V112.375C565.583 116.708 559.229 118.875 553.062 118.875C546.687 118.875 541.729 117.104 538.187 113.562C534.646 110.021 532.875 105.146 532.875 98.9375V67.5625H523V52.1875H553.625V93.5625C553.625 96.6458 554.104 98.7708 555.062 99.9375C556.062 101.062 557.875 101.625 560.5 101.625Z" fill="white"/>
<path d="M643.312 33.5C643.312 36.8333 642.167 39.6042 639.875 41.8125C637.625 43.9792 634.937 45.0625 631.812 45.0625C628.646 45.0625 625.917 43.9375 623.625 41.6875C621.375 39.3958 620.25 36.6667 620.25 33.5C620.25 30.375 621.375 27.6875 623.625 25.4375C625.917 23.1458 628.646 22 631.812 22C634.937 22 637.625 23.1458 639.875 25.4375C642.167 27.6875 643.312 30.375 643.312 33.5ZM651.75 102.75V117.875H611.187V102.75H621.187V67.5625H611.187V52.1875H642V102.75H651.75Z" fill="white"/>
<path d="M735.75 102.75V117.875H704.187V110.062C698.187 115.938 691.812 118.875 685.062 118.875C679.521 118.875 674.625 117.396 670.375 114.438C666.125 111.438 662.792 107.333 660.375 102.125C658 96.9167 656.812 91.125 656.812 84.75C656.812 78.1667 658 72.2917 660.375 67.125C662.792 61.9583 666.187 57.9375 670.562 55.0625C674.937 52.1458 679.812 50.6875 685.187 50.6875C692.896 50.6875 699.229 53.6667 704.187 59.625V38.75H693.812V23.6875H725V102.75H735.75ZM691.25 102.375C695.333 102.375 698.521 100.771 700.812 97.5625C703.146 94.3125 704.312 90.125 704.312 85C704.312 79.875 703.125 75.6875 700.75 72.4375C698.417 69.1875 695.208 67.5625 691.125 67.5625C687.167 67.5625 684.021 69.1875 681.687 72.4375C679.354 75.6875 678.187 79.8333 678.187 84.875C678.187 89.9583 679.354 94.1458 681.687 97.4375C684.021 100.729 687.208 102.375 691.25 102.375Z" fill="white"/>
</svg>
