<svg width="134" height="151" viewBox="0 0 134 151" fill="none" xmlns="http://www.w3.org/2000/svg">
<path d="M133.522 16.5817V116.94C133.517 121.336 131.768 125.551 128.66 128.66C125.551 131.768 121.336 133.517 116.94 133.522H110.598L116.204 139.128L104.332 151L86.825 133.522H72.9613V116.732H93.7238H116.648V16.7893H16.7893V116.732H39.8829V96.7627C39.9003 92.0299 41.7881 87.4959 45.1347 84.1493C48.4813 80.8027 53.0153 78.9149 57.7481 78.8975H97.6498V95.6868H57.7481C57.4627 95.6868 57.1891 95.8002 56.9873 96.0019C56.7856 96.2037 56.6722 96.4773 56.6722 96.7627V133.569H39.8829H16.5817C14.4009 133.566 12.2419 133.134 10.2282 132.297C8.21446 131.46 6.3854 130.234 4.84553 128.69C3.30565 127.146 2.08514 125.313 1.25373 123.297C0.422319 121.281 -0.00369665 119.121 2.41641e-05 116.94V16.5817C0.00501985 12.1855 1.75362 7.97077 4.86221 4.86218C7.97079 1.75359 12.1855 0.00499569 16.5817 0L116.94 0C121.336 0.00499569 125.551 1.75359 128.66 4.86218C131.768 7.97077 133.517 12.1855 133.522 16.5817ZM39.6375 52.2271V71.0266H56.4646V54.8507H68.6012V38.0614H53.841C51.9772 38.0552 50.1305 38.4171 48.4069 39.1263C46.6833 39.8356 45.1168 40.8782 43.7971 42.1943C42.4775 43.5105 41.4307 45.0743 40.7169 46.7959C40.0031 48.5176 39.6363 50.3633 39.6375 52.2271ZM97.48 46.0833L74.4053 32.7387V59.4563L97.48 46.0833Z" fill="url(#paint0_linear_5_68)"/>
<defs>
<linearGradient id="paint0_linear_5_68" x1="66.7609" y1="0" x2="66.7609" y2="151" gradientUnits="userSpaceOnUse">
<stop stop-color="#B344D8"/>
<stop offset="1" stop-color="#7169F1"/>
</linearGradient>
</defs>
</svg>
