<svg width="736" height="149" viewBox="0 0 736 149" fill="none" xmlns="http://www.w3.org/2000/svg">
<path d="M0.0911865 18.2514C0.0911865 8.49789 8.02312 0.591064 17.8077 0.591064L131.375 0.591064C141.159 0.591064 149.091 8.49789 149.091 18.2514C149.091 28.005 141.159 35.9118 131.375 35.9118L17.8077 35.9118C8.02312 35.9118 0.0911865 28.005 0.0911865 18.2514Z" fill="#EF2C5A"/>
<path d="M0.0911865 72.5911C0.0911865 62.8375 8.02312 54.9307 17.8077 54.9307L90.9448 54.9307C100.729 54.9307 108.661 62.8375 108.661 72.5911C108.661 82.3446 100.729 90.2514 90.9448 90.2514H17.8077C8.02312 90.2514 0.0911865 82.3446 0.0911865 72.5911Z" fill="#EF2C5A"/>
<path d="M0.0911865 126.931C0.0911865 117.177 8.02312 109.27 17.8077 109.27H44.6095C54.394 109.27 62.3259 117.177 62.3259 126.931C62.3259 136.684 54.394 144.591 44.6095 144.591H17.8077C8.02312 144.591 0.0911865 136.684 0.0911865 126.931Z" fill="#EF2C5A"/>
<path d="M251.091 31.8411L235.966 43.7161C235.216 41.3411 234.362 39.5494 233.404 38.3411C232.487 37.1327 231.383 36.5286 230.091 36.5286C228.216 36.5286 226.82 37.2994 225.904 38.8411C225.029 40.3827 224.591 42.7786 224.591 46.0286V52.7786H236.216V68.1536H224.591V103.341H236.841V118.466H194.091V103.341H203.716V68.1536H194.904V52.7786H203.716V46.0286C203.716 38.8619 205.862 33.1744 210.154 28.9661C214.487 24.7161 220.779 22.5911 229.029 22.5911C239.362 22.5911 246.716 25.6744 251.091 31.8411Z" fill="#131022"/>
<path d="M307.466 79.0286V103.341H318.091V118.466H286.591V113.341C280.633 117.424 274.674 119.466 268.716 119.466C261.508 119.466 255.737 117.612 251.404 113.904C247.07 110.195 244.904 105.195 244.904 98.9036C244.904 92.2369 247.32 86.9036 252.154 82.9036C257.029 78.8619 263.487 76.8411 271.529 76.8411C274.32 76.8411 276.799 77.1536 278.966 77.7786C281.174 78.3619 283.716 79.3827 286.591 80.8411V75.5911C286.591 72.2577 285.549 69.5911 283.466 67.5911C281.383 65.5911 278.258 64.5911 274.091 64.5911C269.549 64.5911 265.529 66.3411 262.029 69.8411L245.154 66.7786C250.279 56.4452 260.862 51.2786 276.904 51.2786C287.904 51.2786 295.737 53.5494 300.404 58.0911C305.112 62.5911 307.466 69.5702 307.466 79.0286ZM273.404 106.404C277.154 106.404 281.549 104.154 286.591 99.6536V93.7786C282.091 90.8619 277.966 89.4036 274.216 89.4036C271.216 89.4036 268.924 90.1119 267.341 91.5286C265.758 92.9452 264.966 94.9661 264.966 97.5911C264.966 103.466 267.779 106.404 273.404 106.404Z" fill="#131022"/>
<path d="M365.091 55.0911V52.7786H380.029V72.0286H365.091C363.799 67.4036 359.008 65.0911 350.716 65.0911C344.758 65.0911 341.779 66.7577 341.779 70.0911C341.779 71.5494 342.57 72.6327 344.154 73.3411C345.737 74.0494 348.049 74.6327 351.091 75.0911C359.633 76.1744 366.362 77.7369 371.279 79.7786C376.195 81.7786 379.633 84.2786 381.591 87.2786C383.549 90.2369 384.529 93.8411 384.529 98.0911C384.529 105.008 382.154 110.404 377.404 114.279C372.695 118.112 366.279 120.029 358.154 120.029C350.237 120.029 344.862 118.445 342.029 115.279V118.466H326.779V95.8411H342.029C342.445 98.9661 343.945 101.424 346.529 103.216C349.154 105.008 352.383 105.904 356.216 105.904C359.966 105.904 362.737 105.487 364.529 104.654C366.32 103.779 367.216 102.279 367.216 100.154C367.216 98.6952 366.841 97.5702 366.091 96.7786C365.341 95.9452 363.883 95.2161 361.716 94.5911C359.591 93.9661 356.32 93.2577 351.904 92.4661C342.07 90.9244 334.987 88.4452 330.654 85.0286C326.362 81.5702 324.216 76.9244 324.216 71.0911C324.216 65.1327 326.445 60.4452 330.904 57.0286C335.404 53.6119 341.32 51.9036 348.654 51.9036C354.57 51.9036 360.049 52.9661 365.091 55.0911Z" fill="#131022"/>
<path d="M431.716 52.7786V68.1536H419.591V96.8411C419.591 98.8827 419.987 100.424 420.779 101.466C421.57 102.466 423.049 102.966 425.216 102.966C427.008 102.966 429.174 102.508 431.716 101.591V116.154C426.091 118.362 420.799 119.466 415.841 119.466C410.133 119.466 405.841 118.029 402.966 115.154C400.133 112.237 398.716 108.133 398.716 102.841V68.1536H390.404V52.7786H398.716V42.5911L419.591 27.5911V52.7786H431.716Z" fill="#131022"/>
<path d="M484.966 60.9661V52.7786H517.404V68.1536H505.966V132.904H517.404V148.029H472.341V132.904H484.966V111.841C479.341 117.299 473.029 120.029 466.029 120.029C460.487 120.029 455.57 118.466 451.279 115.341C447.029 112.216 443.737 108.049 441.404 102.841C439.07 97.6327 437.904 92.0077 437.904 85.9661C437.904 79.8827 439.091 74.2577 441.466 69.0911C443.883 63.8827 447.216 59.7161 451.466 56.5911C455.716 53.4661 460.487 51.9036 465.779 51.9036C472.695 51.9036 479.091 54.9244 484.966 60.9661ZM472.216 103.591C475.966 103.591 479.07 102.07 481.529 99.0286C484.029 95.9452 485.279 91.4661 485.279 85.5911C485.279 80.3827 484.112 76.2786 481.779 73.2786C479.487 70.2786 476.299 68.7786 472.216 68.7786C468.383 68.7786 465.279 70.1952 462.904 73.0286C460.57 75.8619 459.404 80.0494 459.404 85.5911C459.404 91.2994 460.529 95.7369 462.779 98.9036C465.029 102.029 468.174 103.591 472.216 103.591Z" fill="#131022"/>
<path d="M560.591 102.216C564.174 102.216 568.049 100.633 572.216 97.4661V68.1536H562.154V52.7786H593.091V103.341H603.841V118.466H572.216V112.966C565.674 117.299 559.32 119.466 553.154 119.466C546.779 119.466 541.82 117.695 538.279 114.154C534.737 110.612 532.966 105.737 532.966 99.5286V68.1536H523.091V52.7786H553.716V94.1536C553.716 97.2369 554.195 99.3619 555.154 100.529C556.154 101.654 557.966 102.216 560.591 102.216Z" fill="#131022"/>
<path d="M643.404 34.0911C643.404 37.4244 642.258 40.1952 639.966 42.4036C637.716 44.5702 635.029 45.6536 631.904 45.6536C628.737 45.6536 626.008 44.5286 623.716 42.2786C621.466 39.9869 620.341 37.2577 620.341 34.0911C620.341 30.9661 621.466 28.2786 623.716 26.0286C626.008 23.7369 628.737 22.5911 631.904 22.5911C635.029 22.5911 637.716 23.7369 639.966 26.0286C642.258 28.2786 643.404 30.9661 643.404 34.0911ZM651.841 103.341V118.466H611.279V103.341H621.279V68.1536H611.279V52.7786H642.091V103.341H651.841Z" fill="#131022"/>
<path d="M735.841 103.341V118.466H704.279V110.654C698.279 116.529 691.904 119.466 685.154 119.466C679.612 119.466 674.716 117.987 670.466 115.029C666.216 112.029 662.883 107.924 660.466 102.716C658.091 97.5077 656.904 91.7161 656.904 85.3411C656.904 78.7577 658.091 72.8827 660.466 67.7161C662.883 62.5494 666.279 58.5286 670.654 55.6536C675.029 52.7369 679.904 51.2786 685.279 51.2786C692.987 51.2786 699.32 54.2577 704.279 60.2161V39.3411H693.904V24.2786H725.091V103.341H735.841ZM691.341 102.966C695.424 102.966 698.612 101.362 700.904 98.1536C703.237 94.9036 704.404 90.7161 704.404 85.5911C704.404 80.4661 703.216 76.2786 700.841 73.0286C698.508 69.7786 695.299 68.1536 691.216 68.1536C687.258 68.1536 684.112 69.7786 681.779 73.0286C679.445 76.2786 678.279 80.4244 678.279 85.4661C678.279 90.5494 679.445 94.7369 681.779 98.0286C684.112 101.32 687.299 102.966 691.341 102.966Z" fill="#131022"/>
</svg>
